HIERARCHY
ROOT newVegas:Hips
{
	OFFSET 0.000000 96.479958 0.000000
	CHANNELS 6 Xposition Yposition Zposition Xrotation Yrotation Zrotation
	JOINT newVegas:Pelvis
	{
		OFFSET 0.000000 0.000000 0.000000
		CHANNELS 3 Xrotation Yrotation Zrotation
		JOINT newVegas:LeftUpLeg
		{
			OFFSET 18.735201 -5.666702 -4.541200
			CHANNELS 3 Xrotation Yrotation Zrotation
			JOINT newVegas:LeftLeg
			{
				OFFSET -0.021200 -31.938179 0.493100
				CHANNELS 3 Xrotation Yrotation Zrotation
				JOINT newVegas:LeftFoot
				{
					OFFSET 0.021200 -31.938179 -4.336299
					CHANNELS 3 Xrotation Yrotation Zrotation
					JOINT newVegas:LeftToeBase
					{
						OFFSET 0.943001 -26.722000 15.023500
						CHANNELS 3 Xrotation Yrotation Zrotation
						End Site
						{
							OFFSET 0.000000 30.670183 0.000000
						}
					}
				}
				JOINT newVegas:Left_PantLeg
				{
					OFFSET 0.663870 -9.044666 -1.108900
					CHANNELS 3 Xrotation Yrotation Zrotation
					End Site
					{
						OFFSET 1.415995 20.635357 0.000000
					}
				}
			}
		}
		JOINT newVegas:RightUpLeg
		{
			OFFSET -18.735201 -5.666702 -4.541200
			CHANNELS 3 Xrotation Yrotation Zrotation
			JOINT newVegas:RightLeg
			{
				OFFSET 0.018946 -31.938133 0.493100
				CHANNELS 3 Xrotation Yrotation Zrotation
				JOINT newVegas:RightFoot
				{
					OFFSET -0.018946 -31.938126 -4.336299
					CHANNELS 3 Xrotation Yrotation Zrotation
					JOINT newVegas:RightToeBase
					{
						OFFSET -0.943001 -26.722004 15.023500
						CHANNELS 3 Xrotation Yrotation Zrotation
						End Site
						{
							OFFSET 0.000000 30.670187 0.000000
						}
					}
				}
				JOINT newVegas:Right_PantLeg
				{
					OFFSET -0.661674 -9.044716 -1.108900
					CHANNELS 3 Xrotation Yrotation Zrotation
					End Site
					{
						OFFSET -1.415958 20.635269 0.000000
					}
				}
			}
		}
	}
	JOINT newVegas:Spine
	{
		OFFSET 0.000000 10.199997 -0.299500
		CHANNELS 3 Xrotation Yrotation Zrotation
		JOINT newVegas:Spine1
		{
			OFFSET 0.000000 11.900002 -1.516600
			CHANNELS 3 Xrotation Yrotation Zrotation
			JOINT newVegas:Spine2
			{
				OFFSET 0.000000 13.600006 -2.842500
				CHANNELS 3 Xrotation Yrotation Zrotation
				JOINT newVegas:Neck
				{
					OFFSET 0.000000 9.624100 -2.890100
					CHANNELS 3 Xrotation Yrotation Zrotation
					JOINT newVegas:Head
					{
						OFFSET 0.000000 14.068802 -1.351900
						CHANNELS 3 Xrotation Yrotation Zrotation
						JOINT newVegas:Hair_Back
						{
							OFFSET 0.000000 3.231903 -17.524799
							CHANNELS 3 Xrotation Yrotation Zrotation
							End Site
							{
								OFFSET 0.000000 19.849884 0.000000
							}
						}
						JOINT newVegas:Hair_Front
						{
							OFFSET 0.000000 31.260406 4.573800
							CHANNELS 3 Xrotation Yrotation Zrotation
							JOINT newVegas:Hair_Front1
							{
								OFFSET 0.000000 2.284103 11.993300
								CHANNELS 3 Xrotation Yrotation Zrotation
								JOINT newVegas:Hair_Front2
								{
									OFFSET 0.000000 2.284103 11.993300
									CHANNELS 3 Xrotation Yrotation Zrotation
									End Site
									{
										OFFSET 0.000000 12.208862 0.000000
									}
								}
							}
						}
						JOINT newVegas:Jowel
						{
							OFFSET 0.000000 -7.458206 6.864100
							CHANNELS 3 Xrotation Yrotation Zrotation
							End Site
							{
								OFFSET 0.000000 19.849884 0.000000
							}
						}
					}
				}
				JOINT newVegas:LeftShoulder
				{
					OFFSET 15.263000 10.923401 -0.547700
					CHANNELS 3 Xrotation Yrotation Zrotation
					JOINT newVegas:LeftArm
					{
						OFFSET 25.438599 -2.830597 -13.032500
						CHANNELS 3 Xrotation Yrotation Zrotation
						JOINT newVegas:LeftForeArm
						{
							OFFSET 29.960503 0.000000 0.000000
							CHANNELS 3 Xrotation Yrotation Zrotation
							JOINT newVegas:LeftHand
							{
								OFFSET 27.849251 0.000000 0.000000
								CHANNELS 3 Xrotation Yrotation Zrotation
								JOINT newVegas:LeftHandThumb1
								{
									OFFSET 4.487587 -3.305161 6.305391
									CHANNELS 3 Xrotation Yrotation Zrotation
									JOINT newVegas:LeftHandThumb2
									{
										OFFSET 5.480453 -3.164139 3.164143
										CHANNELS 3 Xrotation Yrotation Zrotation
										JOINT newVegas:LeftHandThumb3
										{
											OFFSET 5.159721 -2.978973 2.978967
											CHANNELS 3 Xrotation Yrotation Zrotation
											End Site
											{
												OFFSET 2.494507 5.926697 1.738678
											}
										}
									}
								}
								JOINT newVegas:LeftHandIndex1
								{
									OFFSET 18.578728 -0.527832 5.208049
									CHANNELS 3 Xrotation Yrotation Zrotation
									JOINT newVegas:LeftHandIndex2
									{
										OFFSET 3.192009 0.000000 0.000000
										CHANNELS 3 Xrotation Yrotation Zrotation
										JOINT newVegas:LeftHandIndex3
										{
											OFFSET 3.835129 0.000000 0.000000
											CHANNELS 3 Xrotation Yrotation Zrotation
											End Site
											{
												OFFSET -0.034599 3.816971 0.371180
											}
										}
									}
								}
								JOINT newVegas:LeftHandMiddle1
								{
									OFFSET 18.476105 0.000000 0.000000
									CHANNELS 3 Xrotation Yrotation Zrotation
									JOINT newVegas:LeftHandMiddle2
									{
										OFFSET 3.324875 0.000000 0.000000
										CHANNELS 3 Xrotation Yrotation Zrotation
										JOINT newVegas:LeftHandMiddle3
										{
											OFFSET 4.596550 0.000000 0.000000
											CHANNELS 3 Xrotation Yrotation Zrotation
											End Site
											{
												OFFSET 0.057701 4.578827 0.399218
											}
										}
									}
								}
								JOINT newVegas:LeftHandRing1
								{
									OFFSET 17.732719 0.121887 -4.201567
									CHANNELS 3 Xrotation Yrotation Zrotation
									JOINT newVegas:LeftHandRing2
									{
										OFFSET 2.733170 0.000000 0.000000
										CHANNELS 3 Xrotation Yrotation Zrotation
										JOINT newVegas:LeftHandRing3
										{
											OFFSET 3.178268 0.000000 0.000000
											CHANNELS 3 Xrotation Yrotation Zrotation
											End Site
											{
												OFFSET 0.119102 3.170624 0.185394
											}
										}
									}
								}
								JOINT newVegas:LeftHandPinky1
								{
									OFFSET 15.989624 -0.606689 -7.535461
									CHANNELS 3 Xrotation Yrotation Zrotation
									JOINT newVegas:LeftHandPinky2
									{
										OFFSET 2.538986 0.000000 0.000000
										CHANNELS 3 Xrotation Yrotation Zrotation
										JOINT newVegas:LeftHandPinky3
										{
											OFFSET 2.593102 0.000000 0.000000
											CHANNELS 3 Xrotation Yrotation Zrotation
											End Site
											{
												OFFSET -0.150902 2.584198 0.152708
											}
										}
									}
								}
							}
							JOINT newVegas:Left_Sleeve
							{
								OFFSET 0.267448 -0.649796 0.577675
								CHANNELS 3 Xrotation Yrotation Zrotation
								End Site
								{
									OFFSET 0.000000 15.991241 0.000000
								}
							}
							JOINT newVegas:Left_CapeC
							{
								OFFSET 15.715958 -8.608795 -6.935905
								CHANNELS 3 Xrotation Yrotation Zrotation
								JOINT newVegas:Left_CapeC1
								{
									OFFSET 0.000000 -8.688499 0.000000
									CHANNELS 3 Xrotation Yrotation Zrotation
									End Site
									{
										OFFSET 0.000000 8.688499 0.000000
									}
								}
							}
						}
						JOINT newVegas:Left_CapeB
						{
							OFFSET 26.118385 -8.608795 -7.079235
							CHANNELS 3 Xrotation Yrotation Zrotation
							JOINT newVegas:Left_CapeB1
							{
								OFFSET 0.000000 -8.688499 0.000000
								CHANNELS 3 Xrotation Yrotation Zrotation
								End Site
								{
									OFFSET 0.000000 8.688499 0.000000
								}
							}
						}
						JOINT newVegas:Left_CapeA
						{
							OFFSET 5.115639 -8.608795 -10.395809
							CHANNELS 3 Xrotation Yrotation Zrotation
							JOINT newVegas:Left_CapeA1
							{
								OFFSET 0.000000 -8.688499 0.000000
								CHANNELS 3 Xrotation Yrotation Zrotation
								End Site
								{
									OFFSET 0.000000 8.688499 0.000000
								}
							}
						}
					}
				}
				JOINT newVegas:RightShoulder
				{
					OFFSET -15.263000 10.923401 -0.547700
					CHANNELS 3 Xrotation Yrotation Zrotation
					JOINT newVegas:RightArm
					{
						OFFSET -25.438599 -2.830597 -13.032500
						CHANNELS 3 Xrotation Yrotation Zrotation
						JOINT newVegas:RightForeArm
						{
							OFFSET -29.960503 0.000000 0.000000
							CHANNELS 3 Xrotation Yrotation Zrotation
							JOINT newVegas:RightHand
							{
								OFFSET -27.849251 0.000000 0.000000
								CHANNELS 3 Xrotation Yrotation Zrotation
								JOINT newVegas:RightHandThumb1
								{
									OFFSET -4.487587 -3.305161 6.305391
									CHANNELS 3 Xrotation Yrotation Zrotation
									JOINT newVegas:RightHandThumb2
									{
										OFFSET -5.480453 -3.164139 3.164143
										CHANNELS 3 Xrotation Yrotation Zrotation
										JOINT newVegas:RightHandThumb3
										{
											OFFSET -5.159721 -2.978973 2.978967
											CHANNELS 3 Xrotation Yrotation Zrotation
											End Site
											{
												OFFSET -2.494507 5.926697 1.738678
											}
										}
									}
								}
								JOINT newVegas:RightHandIndex1
								{
									OFFSET -18.578728 -0.527832 5.208049
									CHANNELS 3 Xrotation Yrotation Zrotation
									JOINT newVegas:RightHandIndex2
									{
										OFFSET -3.192009 0.000000 0.000000
										CHANNELS 3 Xrotation Yrotation Zrotation
										JOINT newVegas:RightHandIndex3
										{
											OFFSET -3.835129 0.000000 0.000000
											CHANNELS 3 Xrotation Yrotation Zrotation
											End Site
											{
												OFFSET 0.034599 3.816971 0.371180
											}
										}
									}
								}
								JOINT newVegas:RightHandMiddle1
								{
									OFFSET -18.476105 0.000000 0.000000
									CHANNELS 3 Xrotation Yrotation Zrotation
									JOINT newVegas:RightHandMiddle2
									{
										OFFSET -3.324875 0.000000 0.000000
										CHANNELS 3 Xrotation Yrotation Zrotation
										JOINT newVegas:RightHandMiddle3
										{
											OFFSET -4.596550 0.000000 0.000000
											CHANNELS 3 Xrotation Yrotation Zrotation
											End Site
											{
												OFFSET -0.057701 4.578827 0.399218
											}
										}
									}
								}
								JOINT newVegas:RightHandRing1
								{
									OFFSET -17.732719 0.121887 -4.201567
									CHANNELS 3 Xrotation Yrotation Zrotation
									JOINT newVegas:RightHandRing2
									{
										OFFSET -2.733170 0.000000 0.000000
										CHANNELS 3 Xrotation Yrotation Zrotation
										JOINT newVegas:RightHandRing3
										{
											OFFSET -3.178268 0.000000 0.000000
											CHANNELS 3 Xrotation Yrotation Zrotation
											End Site
											{
												OFFSET -0.119102 3.170624 0.185394
											}
										}
									}
								}
								JOINT newVegas:RightHandPinky1
								{
									OFFSET -15.989624 -0.606689 -7.535461
									CHANNELS 3 Xrotation Yrotation Zrotation
									JOINT newVegas:RightHandPinky2
									{
										OFFSET -2.538986 0.000000 0.000000
										CHANNELS 3 Xrotation Yrotation Zrotation
										JOINT newVegas:RightHandPinky3
										{
											OFFSET -2.593102 0.000000 0.000000
											CHANNELS 3 Xrotation Yrotation Zrotation
											End Site
											{
												OFFSET 0.150902 2.584198 0.152708
											}
										}
									}
								}
							}
							JOINT newVegas:Right_CapeC
							{
								OFFSET -15.715958 -8.608795 -6.935905
								CHANNELS 3 Xrotation Yrotation Zrotation
								JOINT newVegas:Right_CapeC1
								{
									OFFSET 0.000000 -8.688499 0.000000
									CHANNELS 3 Xrotation Yrotation Zrotation
									End Site
									{
										OFFSET 0.000000 8.688499 0.000000
									}
								}
							}
							JOINT newVegas:Right_Sleeve
							{
								OFFSET -0.267448 -0.649994 0.577675
								CHANNELS 3 Xrotation Yrotation Zrotation
								End Site
								{
									OFFSET 0.000000 15.991302 0.000000
								}
							}
						}
						JOINT newVegas:Right_CapeA
						{
							OFFSET -5.115540 -8.608795 -10.395824
							CHANNELS 3 Xrotation Yrotation Zrotation
							JOINT newVegas:Right_CapeA1
							{
								OFFSET 0.000000 -8.688499 0.000000
								CHANNELS 3 Xrotation Yrotation Zrotation
								End Site
								{
									OFFSET 0.000000 8.688499 0.000000
								}
							}
						}
						JOINT newVegas:Right_CapeB
						{
							OFFSET -26.118187 -8.608795 -7.079266
							CHANNELS 3 Xrotation Yrotation Zrotation
							JOINT newVegas:Right_CapeB1
							{
								OFFSET 0.000000 -8.688499 0.000000
								CHANNELS 3 Xrotation Yrotation Zrotation
								End Site
								{
									OFFSET 0.000000 8.688499 0.000000
								}
							}
						}
					}
				}
				JOINT newVegas:Left_Collar
				{
					OFFSET 18.625099 8.655502 8.828100
					CHANNELS 3 Xrotation Yrotation Zrotation
					JOINT newVegas:Left_Collar1
					{
						OFFSET 14.783401 10.540405 -1.259500
						CHANNELS 3 Xrotation Yrotation Zrotation
						End Site
						{
							OFFSET 0.000000 18.199875 0.000000
						}
					}
				}
				JOINT newVegas:Collar_Back
				{
					OFFSET 0.000000 15.630707 -20.132601
					CHANNELS 3 Xrotation Yrotation Zrotation
					End Site
					{
						OFFSET 0.000000 22.523010 0.000000
					}
				}
				JOINT newVegas:Left_Peck
				{
					OFFSET 17.239599 -5.132599 25.482599
					CHANNELS 3 Xrotation Yrotation Zrotation
					End Site
					{
						OFFSET 0.000000 22.523010 0.000000
					}
				}
				JOINT newVegas:Right_Peck
				{
					OFFSET -17.239599 -5.132202 25.482599
					CHANNELS 3 Xrotation Yrotation Zrotation
					End Site
					{
						OFFSET 0.000000 22.523010 0.000000
					}
				}
				JOINT newVegas:Right_Collar
				{
					OFFSET -18.625099 8.655792 8.828100
					CHANNELS 3 Xrotation Yrotation Zrotation
					JOINT newVegas:Right_Collar1
					{
						OFFSET -14.783401 10.539993 -1.259500
						CHANNELS 3 Xrotation Yrotation Zrotation
						End Site
						{
							OFFSET 0.000000 18.199631 0.000000
						}
					}
				}
			}
		}
		JOINT newVegas:Belly
		{
			OFFSET 0.000000 -6.540398 9.014299
			CHANNELS 3 Xrotation Yrotation Zrotation
			End Site
			{
				OFFSET 0.000000 11.566666 0.000000
			}
		}
	}
	JOINT newVegas:ElvisFacialAnim_Joint
	{
		OFFSET 1.000000 -95.330101 -8.825800
		CHANNELS 3 Xrotation Yrotation Zrotation
		End Site
		{
			OFFSET 0.000000 35.315800 0.000000
		}
	}
}
MOTION
Frames: 4
Frame Time: 0.033333
1.917048 63.864510 -14.498106 48.841026 59.820948 -40.857632 0.000000 -0.000001 0.000001 -56.539712 -6.094456 44.113101 89.531206 -1.193757 -7.375755 -21.262608 23.669541 -33.615264 0.000000 -0.000001 -0.000000 -0.000001 0.000001 -0.000000 -89.999374 10.183391 -53.436521 51.314460 12.432492 2.545739 36.868733 -26.964001 27.628062 -0.000000 0.000000 -0.000000 0.000000 0.000000 -0.000001 5.272677 -1.454016 0.788225 10.405167 -3.998589 1.086369 10.464272 -4.436392 1.777228 -0.362638 -3.366197 0.055812 -0.362644 -3.366219 0.055828 0.000003 0.000000 -0.000001 -0.362596 -3.366211 0.055817 -0.362684 -3.366238 0.055826 -0.000001 0.000000 0.000002 0.000003 0.000000 -0.000001 -1.092836 -13.843623 -27.945330 -50.902425 -5.719491 -19.201695 0.000006 -45.196946 0.000006 -19.935189 12.220284 31.560504 -14.369022 -24.724107 -3.333623 9.960687 44.019999 5.023010 0.000002 0.000002 -0.000004 0.640769 5.285696 -14.880124 0.239677 1.660127 -16.428881 0.000001 0.000000 -0.000001 1.892967 6.848363 -34.057068 1.070195 3.377077 -35.158221 0.000003 0.000001 0.000000 2.833349 7.534210 -45.188019 1.588975 4.012385 -43.195192 -0.000002 0.000001 0.000001 3.815502 8.007945 -55.591753 2.294459 4.649022 -52.517526 0.000004 -0.000002 0.000001 -0.000001 -0.000001 0.000000 -0.000001 -0.000001 0.000000 -0.000002 -0.000000 0.000000 -0.000001 -0.000002 -0.000000 -0.000001 -0.000003 -0.000002 -0.000001 -0.000002 -0.000000 -0.000002 -0.000001 -0.000001 1.222104 -5.780223 18.096263 -34.120770 -15.124262 13.567869 -0.000022 68.785599 0.000035 14.367769 30.653261 -14.387093 -10.636029 15.786756 -1.388922 9.842953 -45.588180 -5.483510 0.000001 -0.000000 -0.000001 1.126653 -5.575251 25.761901 1.722604 -3.617856 50.910410 0.000001 -0.000001 -0.000000 2.394119 -6.556976 44.753855 1.907087 -3.759918 53.777020 -0.000003 -0.000000 -0.000001 3.253917 -6.917904 55.763942 2.454015 -4.104088 61.740006 -0.000002 -0.000001 -0.000001 3.984138 -7.373500 66.033750 3.139692 -4.403510 70.964470 0.000000 -0.000000 -0.000000 0.000000 -0.000000 -0.000002 0.000000 -0.000000 -0.000002 0.000000 -0.000000 -0.000002 0.000002 0.000000 0.000002 0.000002 0.000001 0.000002 0.000002 0.000000 0.000002 0.000002 0.000001 0.000002 -0.000003 -0.000001 0.000000 -0.000003 -0.000001 0.000000 -0.000003 -0.000001 0.000000 -0.000003 -0.000001 0.000000 -0.000003 -0.000001 0.000000 -0.000003 -0.000001 0.000000 -0.000003 -0.000001 0.000000 -0.000001 -0.000001 -0.000000 0.000000 -0.000001 0.000001 
3.362600 65.966957 -11.537455 42.929549 54.931219 -34.443978 -0.000000 -0.000001 0.000000 -52.130087 -1.801532 43.258364 86.228939 0.666208 -7.115433 -20.761378 27.714700 -28.103689 0.000000 0.000002 -0.000000 0.000002 0.000000 0.000001 -92.928405 6.954941 -48.376963 52.774095 9.769923 2.809773 32.059060 -28.061936 21.106340 -0.000000 -0.000000 -0.000000 0.000004 0.000000 -0.000001 4.411812 -1.509065 1.383197 8.739848 -4.364808 1.597237 8.843054 -5.062253 2.587756 -0.114828 -3.075543 -0.037077 -0.114834 -3.075552 -0.037070 0.000002 0.000001 0.000000 -0.114832 -3.075531 -0.037070 -0.114849 -3.075572 -0.037064 -0.000001 0.000002 0.000000 0.000002 0.000001 0.000001 -0.627900 -13.195382 -24.097225 -55.741700 -5.756536 -24.658137 0.000003 -47.890486 0.000011 -8.860194 6.347408 25.060359 -14.318121 -24.573006 -3.250902 10.003548 44.348275 5.051272 -0.000002 0.000001 -0.000003 0.682309 5.382106 -15.442329 0.283371 1.801644 -17.875438 -0.000005 0.000002 -0.000000 1.975821 6.931488 -34.865319 1.136707 3.469433 -36.272116 -0.000002 -0.000003 -0.000001 2.935073 7.599322 -46.127566 1.674988 4.101851 -44.411065 -0.000001 0.000001 0.000001 3.933829 8.066745 -56.653731 2.402947 4.729945 -53.844260 0.000003 -0.000002 0.000000 0.000001 0.000000 -0.000001 0.000001 0.000000 -0.000001 0.000000 0.000000 -0.000001 -0.000000 0.000003 0.000003 -0.000000 0.000002 0.000003 -0.000000 0.000003 0.000003 -0.000001 0.000003 0.000002 1.323253 -5.405867 19.393453 -32.497166 -19.910348 13.930195 -0.000006 66.370328 -0.000000 10.059097 28.113054 -10.578265 -10.595958 15.733713 -1.409535 9.788379 -45.116278 -5.444913 0.000000 0.000001 -0.000004 1.093576 -5.529982 25.343519 1.662388 -3.568203 49.949430 -0.000000 0.000000 0.000000 2.326657 -6.513048 44.045605 1.847158 -3.715397 52.857758 0.000002 0.000001 -0.000000 3.165815 -6.883156 54.887697 2.379898 -4.063470 60.699406 0.000001 0.000002 0.000003 3.875766 -7.345325 65.000629 3.049352 -4.371368 69.783449 -0.000001 0.000002 -0.000002 0.000000 0.000001 -0.000001 0.000000 0.000001 -0.000001 0.000000 0.000001 -0.000002 0.000003 0.000000 -0.000001 0.000003 0.000001 -0.000002 0.000003 0.000000 -0.000001 0.000003 0.000001 -0.000001 0.000001 0.000000 0.000001 0.000001 0.000000 0.000001 0.000001 0.000000 0.000001 0.000001 0.000000 0.000001 0.000001 0.000000 0.000001 0.000001 0.000000 0.000001 0.000001 0.000000 0.000001 0.000002 -0.000001 0.000001 -0.000000 -0.000001 0.000000 
4.819992 68.216454 -8.747290 37.318224 49.837097 -28.677287 -0.000002 0.000002 -0.000001 -50.178244 0.192440 42.195949 83.951289 3.847125 -6.768491 -14.531791 29.482976 -20.496510 0.000001 -0.000002 0.000000 0.000003 0.000001 0.000000 -92.443031 3.829555 -42.832905 52.227100 5.707187 3.163111 27.875266 -27.667320 15.807645 0.000000 0.000000 -0.000000 -0.000002 -0.000000 -0.000001 3.870030 -1.714681 2.330936 7.651209 -4.960987 2.299056 7.788554 -5.688392 3.285728 0.251328 -2.716362 -0.239909 0.251314 -2.716378 -0.239908 -0.000000 -0.000000 -0.000000 0.251389 -2.716349 -0.239911 0.251283 -2.716365 -0.239908 -0.000002 -0.000001 0.000002 -0.000000 -0.000000 0.000000 -0.352058 -12.361063 -21.672289 -59.134842 -6.307871 -29.223746 0.000025 -51.068167 0.000031 -2.204627 0.165734 18.748369 -14.221486 -24.325393 -3.113268 10.036871 44.602904 5.072998 -0.000004 -0.000001 -0.000004 0.735248 5.504312 -16.086431 0.339704 1.967774 -19.589097 -0.000001 -0.000002 -0.000001 2.071632 7.025841 -35.741034 1.212407 3.570080 -37.504733 -0.000001 -0.000002 -0.000001 3.044595 7.666706 -47.117514 1.771091 4.197430 -45.738905 0.000000 -0.000004 0.000001 4.057464 8.128355 -57.750329 2.521527 4.814043 -55.269566 -0.000000 -0.000002 -0.000002 0.000002 0.000001 0.000002 0.000002 0.000001 0.000002 0.000001 0.000000 0.000002 -0.000000 -0.000003 0.000001 -0.000000 -0.000003 0.000000 -0.000000 -0.000003 0.000001 -0.000001 -0.000003 -0.000000 1.380626 -5.065203 20.330772 -29.340468 -23.406454 14.933541 -0.000004 64.089215 0.000020 9.462127 29.580050 -7.793284 -10.494302 15.595513 -1.463110 9.653667 -43.942029 -5.346760 0.000000 -0.000003 0.000003 1.013694 -5.416478 24.309133 1.517383 -3.441332 47.577387 -0.000000 0.000000 -0.000000 2.162528 -6.399699 42.290079 1.701859 -3.600939 50.580853 0.000000 0.000000 -0.000002 2.950294 -6.789951 52.714054 2.199526 -3.957121 58.120675 0.000001 0.000003 -0.000002 3.610188 -7.265668 62.436603 2.828356 -4.283771 66.855217 -0.000001 0.000003 0.000000 0.000002 0.000001 0.000002 -0.000000 -0.000001 0.000000 0.000002 0.000001 0.000001 0.000002 0.000000 0.000000 0.000001 0.000001 0.000000 0.000002 0.000000 0.000000 0.000001 0.000001 0.000000 0.000001 -0.000002 0.000002 0.000001 -0.000002 0.000002 0.000001 -0.000002 0.000002 0.000001 -0.000002 0.000002 0.000001 -0.000002 0.000002 0.000001 -0.000002 0.000002 0.000001 -0.000002 0.000002 -0.000001 -0.000001 -0.000000 -0.000002 0.000002 -0.000001 
6.304749 70.249695 -6.367836 31.474693 44.620038 -22.835141 -0.000000 0.000001 -0.000001 -47.030340 1.209498 41.514238 80.101624 6.155041 -6.553434 -2.839509 30.136909 -15.796260 -0.000001 0.000000 0.000002 0.000003 0.000000 -0.000002 -89.420686 2.158636 -37.035652 50.343074 0.886753 3.616726 25.141310 -25.967143 11.828401 -0.000000 0.000000 0.000000 0.000001 0.000000 -0.000000 3.784486 -2.047436 3.780026 7.372243 -5.772020 3.203164 7.510949 -6.251384 3.852931 0.682589 -2.274011 -0.628437 0.682591 -2.274018 -0.628439 -0.000003 -0.000001 -0.000001 0.682599 -2.274002 -0.628443 0.682636 -2.274038 -0.628434 -0.000000 0.000000 -0.000000 -0.000003 -0.000001 -0.000001 -0.312193 -12.078437 -21.364340 -60.909626 -8.641480 -32.090411 -0.000017 -55.593918 -0.000004 -0.656394 -3.364344 14.115284 -14.084745 -23.991372 -2.927517 10.061963 44.794136 5.089204 0.000000 0.000001 -0.000003 0.799012 5.647337 -16.802443 0.409809 2.154465 -21.537405 0.000001 0.000001 0.000000 2.179089 7.128542 -36.674933 1.296835 3.677268 -38.840670 -0.000000 0.000006 -0.000001 3.160967 7.735143 -48.150429 1.876623 4.297478 -47.163751 -0.000002 0.000001 -0.000001 4.186317 8.190774 -58.875944 2.649413 4.899928 -56.779994 0.000001 -0.000005 -0.000001 0.000000 0.000002 0.000001 0.000000 0.000002 0.000001 -0.000000 0.000002 0.000001 0.000001 -0.000001 0.000002 0.000001 -0.000002 -0.000001 0.000001 -0.000001 0.000002 -0.000001 -0.000000 0.000001 1.372634 -4.405825 20.954983 -25.792848 -25.231743 15.906650 -0.000006 61.809244 -0.000004 9.873040 32.856683 -5.119197 -10.345943 15.395433 -1.539659 9.456671 -42.203923 -5.196289 0.000002 -0.000003 0.000001 0.900623 -5.244883 22.773748 1.311850 -3.241912 44.052678 0.000001 0.000000 0.000000 1.928140 -6.220745 39.688050 1.494994 -3.420762 47.203564 0.000001 -0.000001 0.000002 2.640189 -6.634296 49.493303 1.941286 -3.784678 54.296732 0.000000 0.000001 0.000001 3.227172 -7.123143 58.638123 2.509619 -4.133393 62.514024 0.000003 -0.000000 0.000003 0.000001 0.000000 -0.000000 -0.000000 -0.000004 -0.000003 0.000001 0.000000 -0.000001 -0.000000 0.000002 -0.000001 -0.000001 0.000002 -0.000000 -0.000000 0.000002 -0.000001 -0.000001 0.000002 -0.000000 0.000001 0.000002 0.000000 0.000001 0.000002 0.000000 0.000001 0.000002 0.000000 0.000001 0.000002 0.000000 0.000001 0.000002 0.000000 0.000001 0.000002 0.000000 0.000001 0.000002 0.000000 -0.000001 0.000001 -0.000000 -0.000000 0.000001 -0.000001 
